<svg width="261" height="60" viewBox="0 0 261 60" fill="none" xmlns="http://www.w3.org/2000/svg">
<path d="M7.616 39.992C7.616 40.4213 7.52267 40.8227 7.336 41.196C5.50667 41.0653 4.312 41 3.752 41C2.93067 41 2.05333 41.056 1.12 41.168L0.756 41.196C0.756 40.7667 0.849333 40.3653 1.036 39.992C1.74533 39.7867 2.36133 39.4693 2.884 39.04C3.36933 34.84 3.78933 29.604 4.144 23.332L2.016 22.968C2.016 22.5387 2.10933 22.1373 2.296 21.764C3.93867 21.8947 5.10533 21.96 5.796 21.96L8.876 21.764C8.876 22.1933 8.78267 22.5947 8.596 22.968C7.71867 23.1173 7.01867 23.4067 6.496 23.836C6.01067 27.8867 5.6 33.132 5.264 39.572L7.616 39.992ZM29.1756 27.56C29.8662 27.56 30.4169 27.6533 30.8276 27.84C31.2382 28.0267 31.4716 28.2133 31.5276 28.4L31.6396 28.68C31.2102 32.2827 30.9209 35.8293 30.7716 39.32H33.0116C33.0116 39.7493 32.9182 40.1507 32.7316 40.524C31.4809 40.6733 30.3516 40.972 29.3436 41.42C29.0636 41.42 28.8209 41.3173 28.6156 41.112C28.4289 40.9067 28.3356 40.5893 28.3356 40.16C28.7462 37.5467 29.1009 34 29.3996 29.52H27.6916C27.0382 29.52 26.2262 30.1733 25.2556 31.48C24.2849 32.7867 23.4449 34.196 22.7356 35.708C22.5302 38.452 22.3716 40.216 22.2596 41C21.3449 41.28 20.4676 41.42 19.6276 41.42C19.9262 40.1693 20.1129 39.2547 20.1876 38.676C20.5236 37.052 20.8409 34 21.1396 29.52H19.4316C18.7036 29.52 17.9102 30.0893 17.0516 31.228C16.2116 32.348 15.4742 33.6453 14.8396 35.12C14.6529 37.4347 14.4382 39.3947 14.1956 41C13.2809 41.28 12.4036 41.42 11.5636 41.42C11.8622 40.1693 12.1236 38.704 12.3476 37.024C12.5716 35.344 12.7676 32.8427 12.9356 29.52H10.8916C10.8916 29.0907 10.9849 28.6893 11.1716 28.316C12.2356 28.1667 13.2716 27.868 14.2796 27.42C14.5409 27.42 14.7742 27.5413 14.9796 27.784C15.1849 28.008 15.2876 28.3067 15.2876 28.68L14.7556 32.684L15.0356 32.852C16.5849 29.324 18.5449 27.56 20.9156 27.56C21.6062 27.56 22.1569 27.6533 22.5676 27.84C22.9782 28.0267 23.2209 28.2133 23.2956 28.4L23.3796 28.68C23.3609 29.184 23.2396 30.5187 23.0156 32.684L23.2956 32.852C24.8449 29.324 26.8049 27.56 29.1756 27.56ZM41.6458 41.28C40.9552 41.28 40.1712 41.1493 39.2938 40.888C39.0698 43.1467 38.9205 45.004 38.8458 46.46L41.0578 46.936C41.0578 47.3653 40.9645 47.7667 40.7778 48.14C39.2845 47.9533 38.2858 47.86 37.7818 47.86C36.9045 47.86 35.9152 47.9253 34.8138 48.056L34.2818 48.14C34.2818 47.7107 34.3752 47.3093 34.5618 46.936C35.2525 46.768 35.8685 46.516 36.4098 46.18C36.8765 43.324 37.2125 40.7947 37.4178 38.592C37.6232 36.3707 37.8378 33.3467 38.0618 29.52H36.0178C36.0178 29.0907 36.1112 28.6893 36.2978 28.316C37.3618 28.1667 38.3978 27.868 39.4058 27.42C39.6672 27.42 39.9005 27.5413 40.1058 27.784C40.3112 28.008 40.4138 28.3067 40.4138 28.68L39.8818 32.684L40.1618 32.852C40.8525 31.172 41.5525 29.8747 42.2618 28.96C42.9712 28.0267 43.9045 27.56 45.0618 27.56C46.2192 27.56 47.1898 27.9893 47.9738 28.848C48.7578 29.688 49.1498 30.836 49.1498 32.292C49.1498 34.7 48.4312 36.8 46.9938 38.592C45.5565 40.384 43.7738 41.28 41.6458 41.28ZM47.0218 33.076C47.0218 32.2547 46.8352 31.5173 46.4618 30.864C46.0885 30.192 45.6685 29.744 45.2018 29.52H43.8578C42.7005 29.744 41.3658 31.7507 39.8538 35.54L39.4338 39.32H43.9418C44.6698 39.1893 45.3605 38.4707 46.0138 37.164C46.6858 35.8387 47.0218 34.476 47.0218 33.076ZM51.4579 29.52C51.4579 29.0907 51.5512 28.6893 51.7379 28.316C52.8019 28.1667 53.8379 27.868 54.8459 27.42C55.1072 27.42 55.3405 27.5413 55.5459 27.784C55.7512 28.008 55.8539 28.3067 55.8539 28.68L55.3779 32.04L55.6579 32.208C56.1245 31.144 56.8432 30.108 57.8139 29.1C58.8032 28.0733 59.7552 27.56 60.6699 27.56C61.0245 27.56 61.3419 27.6347 61.6219 27.784C61.9205 27.9333 62.1259 28.0827 62.2379 28.232L62.4059 28.456C61.9392 29.2773 61.5845 30.192 61.3419 31.2L61.2019 31.676C60.8285 31.844 60.3712 31.928 59.8299 31.928C59.9979 31.1627 60.0819 30.6773 60.0819 30.472C60.0819 29.9493 59.9045 29.632 59.5499 29.52C59.1392 29.52 58.4952 30.052 57.6179 31.116C56.7405 32.1613 56.0219 33.2907 55.4619 34.504C55.2192 37.304 54.9859 39.4693 54.7619 41C53.8472 41.28 52.9699 41.42 52.1299 41.42C52.4285 40.1693 52.6899 38.704 52.9139 37.024C53.1379 35.344 53.3339 32.8427 53.5019 29.52H51.4579ZM72.8477 39.32C72.8477 39.7493 72.7544 40.1507 72.5677 40.524C70.589 41.028 69.1704 41.28 68.3117 41.28C65.101 41.28 63.4957 39.5347 63.4957 36.044C63.4957 34.756 63.7757 33.4773 64.3357 32.208C64.8957 30.92 65.745 29.828 66.8837 28.932C68.041 28.0173 69.3477 27.56 70.8037 27.56C71.7184 27.56 72.3904 27.7933 72.8197 28.26C73.249 28.7267 73.4637 29.296 73.4637 29.968C73.4637 33.328 70.8317 35.064 65.5677 35.176C65.5677 37.7333 66.333 39.1147 67.8637 39.32H72.8477ZM71.5037 30.668C71.5037 30.052 71.2424 29.6693 70.7197 29.52H68.1437C67.5277 29.7627 66.9957 30.304 66.5477 31.144C66.0997 31.9653 65.801 32.8987 65.6517 33.944C67.7984 33.8693 69.3104 33.5613 70.1877 33.02C71.065 32.46 71.5037 31.676 71.5037 30.668ZM83.4958 37.584C83.4958 37.2293 83.4024 36.9493 83.2158 36.744C83.0291 36.52 82.8798 36.3613 82.7678 36.268C82.6744 36.156 82.5064 36.0253 82.2638 35.876C82.0211 35.708 81.8531 35.596 81.7598 35.54C81.2931 35.26 80.8358 35.008 80.3878 34.784C79.9584 34.5413 79.6224 34.3453 79.3798 34.196C79.1558 34.0467 78.8664 33.8227 78.5118 33.524C77.8771 32.9827 77.5598 32.2827 77.5598 31.424C77.5598 30.1733 78.0264 29.2213 78.9598 28.568C79.9118 27.896 81.0691 27.56 82.4318 27.56C83.7944 27.56 85.0358 27.9333 86.1558 28.68C85.7264 29.4827 85.3998 30.3413 85.1758 31.256L85.0638 31.676C84.6904 31.844 84.2331 31.928 83.6918 31.928C83.8598 31.1627 83.9438 30.6773 83.9438 30.472C83.9438 29.8747 83.7384 29.5107 83.3278 29.38H80.6118C79.7158 29.5107 79.2678 30.0333 79.2678 30.948C79.2678 31.2653 79.4264 31.592 79.7438 31.928C80.0611 32.2453 80.3784 32.5067 80.6958 32.712C81.0131 32.8987 81.4611 33.1413 82.0398 33.44C82.6371 33.7387 83.1318 34.0187 83.5238 34.28C83.9158 34.5227 84.3078 34.8773 84.6998 35.344C85.1104 35.792 85.3158 36.2493 85.3158 36.716C85.3158 38.172 84.8398 39.3013 83.8878 40.104C82.9358 40.888 81.6478 41.28 80.0238 41.28C79.0344 41.28 78.1851 41.1307 77.4758 40.832C76.7851 40.5147 76.3371 40.2067 76.1318 39.908L75.8238 39.46C76.2344 38.7507 76.5331 37.9853 76.7198 37.164L76.8038 36.8C77.1771 36.632 77.6344 36.548 78.1758 36.548C78.0078 37.164 77.9238 37.696 77.9238 38.144C77.9238 38.7973 78.4558 39.236 79.5198 39.46H82.4318C83.1411 39.0493 83.4958 38.424 83.4958 37.584ZM96.2106 37.584C96.2106 37.2293 96.1173 36.9493 95.9306 36.744C95.744 36.52 95.5946 36.3613 95.4826 36.268C95.3893 36.156 95.2213 36.0253 94.9786 35.876C94.736 35.708 94.568 35.596 94.4746 35.54C94.008 35.26 93.5506 35.008 93.1026 34.784C92.6733 34.5413 92.3373 34.3453 92.0946 34.196C91.8706 34.0467 91.5813 33.8227 91.2266 33.524C90.592 32.9827 90.2746 32.2827 90.2746 31.424C90.2746 30.1733 90.7413 29.2213 91.6746 28.568C92.6266 27.896 93.784 27.56 95.1466 27.56C96.5093 27.56 97.7506 27.9333 98.8706 28.68C98.4413 29.4827 98.1146 30.3413 97.8906 31.256L97.7786 31.676C97.4053 31.844 96.948 31.928 96.4066 31.928C96.5746 31.1627 96.6586 30.6773 96.6586 30.472C96.6586 29.8747 96.4533 29.5107 96.0426 29.38H93.3266C92.4306 29.5107 91.9826 30.0333 91.9826 30.948C91.9826 31.2653 92.1413 31.592 92.4586 31.928C92.776 32.2453 93.0933 32.5067 93.4106 32.712C93.728 32.8987 94.176 33.1413 94.7546 33.44C95.352 33.7387 95.8466 34.0187 96.2386 34.28C96.6306 34.5227 97.0226 34.8773 97.4146 35.344C97.8253 35.792 98.0306 36.2493 98.0306 36.716C98.0306 38.172 97.5546 39.3013 96.6026 40.104C95.6506 40.888 94.3626 41.28 92.7386 41.28C91.7493 41.28 90.9 41.1307 90.1906 40.832C89.5 40.5147 89.052 40.2067 88.8466 39.908L88.5386 39.46C88.9493 38.7507 89.248 37.9853 89.4346 37.164L89.5186 36.8C89.892 36.632 90.3493 36.548 90.8906 36.548C90.7226 37.164 90.6386 37.696 90.6386 38.144C90.6386 38.7973 91.1706 39.236 92.2346 39.46H95.1466C95.856 39.0493 96.2106 38.424 96.2106 37.584ZM101.029 29.52C101.029 29.0907 101.123 28.6893 101.309 28.316C102.373 28.1667 103.409 27.868 104.417 27.42C104.679 27.42 104.912 27.5413 105.117 27.784C105.323 28.008 105.425 28.3067 105.425 28.68C104.996 32.32 104.707 35.8667 104.557 39.32H106.797C106.797 39.7493 106.704 40.1507 106.517 40.524C105.267 40.6733 104.137 40.972 103.129 41.42C102.849 41.42 102.607 41.3173 102.401 41.112C102.215 40.9067 102.121 40.5893 102.121 40.16C102.532 37.5467 102.887 34 103.185 29.52H101.029ZM103.241 22.912C103.335 22.632 103.559 22.408 103.913 22.24C104.268 22.0533 104.632 21.96 105.005 21.96C105.379 21.96 105.668 22.044 105.873 22.212C106.097 22.38 106.209 22.5667 106.209 22.772L106.069 23.78C105.864 24.34 105.267 24.62 104.277 24.62C103.904 24.62 103.615 24.536 103.409 24.368C103.223 24.2 103.129 24.004 103.129 23.78L103.241 22.912ZM113.129 39.264L113.353 39.32H116.041C116.825 39.0213 117.515 38.3027 118.113 37.164C118.71 36.0253 119.009 34.8587 119.009 33.664C119.009 32.1893 118.747 31.144 118.225 30.528C117.758 29.9867 117.347 29.6693 116.993 29.576L116.769 29.52H114.081C113.297 29.8187 112.606 30.5373 112.009 31.676C111.411 32.8147 111.113 34.056 111.113 35.4C111.113 36.7253 111.355 37.6773 111.841 38.256C112.345 38.8347 112.774 39.1707 113.129 39.264ZM120.297 36.632C119.774 37.9013 118.943 38.9933 117.805 39.908C116.685 40.8227 115.35 41.28 113.801 41.28C110.609 41.28 109.013 39.544 109.013 36.072C109.013 34.7653 109.274 33.4773 109.797 32.208C110.338 30.9387 111.169 29.8467 112.289 28.932C113.427 28.0173 114.771 27.56 116.321 27.56C119.513 27.56 121.109 29.296 121.109 32.768C121.109 34.0747 120.838 35.3627 120.297 36.632ZM123.411 29.52C123.411 29.0907 123.504 28.6893 123.691 28.316C124.755 28.1667 125.791 27.868 126.799 27.42C127.06 27.42 127.294 27.5413 127.499 27.784C127.704 28.008 127.807 28.3067 127.807 28.68L127.275 32.684L127.555 32.852C128.134 31.5267 128.992 30.3133 130.131 29.212C131.27 28.1107 132.558 27.56 133.995 27.56C134.686 27.56 135.236 27.6533 135.647 27.84C136.058 28.0267 136.3 28.2133 136.375 28.4L136.459 28.68C136.03 32.2827 135.74 35.8293 135.591 39.32H137.831C137.831 39.7493 137.738 40.1507 137.551 40.524C136.3 40.6733 135.171 40.972 134.163 41.42C133.883 41.42 133.64 41.3173 133.435 41.112C133.248 40.9067 133.155 40.5893 133.155 40.16C133.566 37.5467 133.92 34 134.219 29.52H132.511C131.764 29.52 130.878 30.108 129.851 31.284C128.824 32.4413 127.994 33.72 127.359 35.12C127.172 37.4347 126.958 39.3947 126.715 41C125.8 41.28 124.923 41.42 124.083 41.42C124.382 40.1693 124.643 38.704 124.867 37.024C125.091 35.344 125.287 32.8427 125.455 29.52H123.411ZM139.994 29.52C139.994 29.0907 140.088 28.6893 140.274 28.316C141.338 28.1667 142.374 27.868 143.382 27.42C143.644 27.42 143.877 27.5413 144.082 27.784C144.288 28.008 144.39 28.3067 144.39 28.68C143.961 32.32 143.672 35.8667 143.522 39.32H145.762C145.762 39.7493 145.669 40.1507 145.482 40.524C144.232 40.6733 143.102 40.972 142.094 41.42C141.814 41.42 141.572 41.3173 141.366 41.112C141.18 40.9067 141.086 40.5893 141.086 40.16C141.497 37.5467 141.852 34 142.15 29.52H139.994ZM142.206 22.912C142.3 22.632 142.524 22.408 142.878 22.24C143.233 22.0533 143.597 21.96 143.97 21.96C144.344 21.96 144.633 22.044 144.838 22.212C145.062 22.38 145.174 22.5667 145.174 22.772L145.034 23.78C144.829 24.34 144.232 24.62 143.242 24.62C142.869 24.62 142.58 24.536 142.374 24.368C142.188 24.2 142.094 24.004 142.094 23.78L142.206 22.912ZM155.929 37.584C155.929 37.2293 155.836 36.9493 155.649 36.744C155.463 36.52 155.313 36.3613 155.201 36.268C155.108 36.156 154.94 36.0253 154.697 35.876C154.455 35.708 154.287 35.596 154.193 35.54C153.727 35.26 153.269 35.008 152.821 34.784C152.392 34.5413 152.056 34.3453 151.813 34.196C151.589 34.0467 151.3 33.8227 150.945 33.524C150.311 32.9827 149.993 32.2827 149.993 31.424C149.993 30.1733 150.46 29.2213 151.393 28.568C152.345 27.896 153.503 27.56 154.865 27.56C156.228 27.56 157.469 27.9333 158.589 28.68C158.16 29.4827 157.833 30.3413 157.609 31.256L157.497 31.676C157.124 31.844 156.667 31.928 156.125 31.928C156.293 31.1627 156.377 30.6773 156.377 30.472C156.377 29.8747 156.172 29.5107 155.761 29.38H153.045C152.149 29.5107 151.701 30.0333 151.701 30.948C151.701 31.2653 151.86 31.592 152.177 31.928C152.495 32.2453 152.812 32.5067 153.129 32.712C153.447 32.8987 153.895 33.1413 154.473 33.44C155.071 33.7387 155.565 34.0187 155.957 34.28C156.349 34.5227 156.741 34.8773 157.133 35.344C157.544 35.792 157.749 36.2493 157.749 36.716C157.749 38.172 157.273 39.3013 156.321 40.104C155.369 40.888 154.081 41.28 152.457 41.28C151.468 41.28 150.619 41.1307 149.909 40.832C149.219 40.5147 148.771 40.2067 148.565 39.908L148.257 39.46C148.668 38.7507 148.967 37.9853 149.153 37.164L149.237 36.8C149.611 36.632 150.068 36.548 150.609 36.548C150.441 37.164 150.357 37.696 150.357 38.144C150.357 38.7973 150.889 39.236 151.953 39.46H154.865C155.575 39.0493 155.929 38.424 155.929 37.584ZM179.648 27.56C180.339 27.56 180.89 27.6533 181.3 27.84C181.711 28.0267 181.944 28.2133 182 28.4L182.112 28.68C181.683 32.2827 181.394 35.8293 181.244 39.32H183.484C183.484 39.7493 183.391 40.1507 183.204 40.524C181.954 40.6733 180.824 40.972 179.816 41.42C179.536 41.42 179.294 41.3173 179.088 41.112C178.902 40.9067 178.808 40.5893 178.808 40.16C179.219 37.5467 179.574 34 179.872 29.52H178.164C177.511 29.52 176.699 30.1733 175.728 31.48C174.758 32.7867 173.918 34.196 173.208 35.708C173.003 38.452 172.844 40.216 172.732 41C171.818 41.28 170.94 41.42 170.1 41.42C170.399 40.1693 170.586 39.2547 170.66 38.676C170.996 37.052 171.314 34 171.612 29.52H169.904C169.176 29.52 168.383 30.0893 167.524 31.228C166.684 32.348 165.947 33.6453 165.312 35.12C165.126 37.4347 164.911 39.3947 164.668 41C163.754 41.28 162.876 41.42 162.036 41.42C162.335 40.1693 162.596 38.704 162.82 37.024C163.044 35.344 163.24 32.8427 163.408 29.52H161.364C161.364 29.0907 161.458 28.6893 161.644 28.316C162.708 28.1667 163.744 27.868 164.752 27.42C165.014 27.42 165.247 27.5413 165.452 27.784C165.658 28.008 165.76 28.3067 165.76 28.68L165.228 32.684L165.508 32.852C167.058 29.324 169.018 27.56 171.388 27.56C172.079 27.56 172.63 27.6533 173.04 27.84C173.451 28.0267 173.694 28.2133 173.768 28.4L173.852 28.68C173.834 29.184 173.712 30.5187 173.488 32.684L173.768 32.852C175.318 29.324 177.278 27.56 179.648 27.56ZM204.92 39.32C204.92 39.7493 204.827 40.1507 204.64 40.524C203.389 40.6733 202.26 40.972 201.252 41.42C200.972 41.42 200.729 41.3173 200.524 41.112C200.337 40.9067 200.244 40.5893 200.244 40.16L200.776 36.156L200.496 35.988C199.805 37.668 199.105 38.9747 198.396 39.908C197.687 40.8227 196.753 41.28 195.596 41.28C194.439 41.28 193.468 40.86 192.684 40.02C191.9 39.1613 191.508 38.004 191.508 36.548C191.508 34.14 192.227 32.04 193.664 30.248C195.101 28.456 196.884 27.56 199.012 27.56C199.703 27.56 200.487 27.8307 201.364 28.372C201.401 28.036 201.439 27.7653 201.476 27.56C202.409 27.28 203.296 27.14 204.136 27.14C203.781 28.5773 203.483 30.1267 203.24 31.788C203.016 33.4493 202.792 35.96 202.568 39.32H204.92ZM193.636 35.764C193.636 36.5853 193.823 37.332 194.196 38.004C194.569 38.6573 194.989 39.096 195.456 39.32H196.8C197.883 39.1147 199.199 37.1547 200.748 33.44C200.823 32.656 200.972 31.3493 201.196 29.52H196.716C195.988 29.6507 195.288 30.3787 194.616 31.704C193.963 33.0107 193.636 34.364 193.636 35.764ZM206.989 29.52C206.989 29.0907 207.082 28.6893 207.269 28.316C208.333 28.1667 209.369 27.868 210.377 27.42C210.638 27.42 210.872 27.5413 211.077 27.784C211.282 28.008 211.385 28.3067 211.385 28.68L210.909 32.04L211.189 32.208C211.656 31.144 212.374 30.108 213.345 29.1C214.334 28.0733 215.286 27.56 216.201 27.56C216.556 27.56 216.873 27.6347 217.153 27.784C217.452 27.9333 217.657 28.0827 217.769 28.232L217.937 28.456C217.47 29.2773 217.116 30.192 216.873 31.2L216.733 31.676C216.36 31.844 215.902 31.928 215.361 31.928C215.529 31.1627 215.613 30.6773 215.613 30.472C215.613 29.9493 215.436 29.632 215.081 29.52C214.67 29.52 214.026 30.052 213.149 31.116C212.272 32.1613 211.553 33.2907 210.993 34.504C210.75 37.304 210.517 39.4693 210.293 41C209.378 41.28 208.501 41.42 207.661 41.42C207.96 40.1693 208.221 38.704 208.445 37.024C208.669 35.344 208.865 32.8427 209.033 29.52H206.989ZM226.111 27.84C226.111 28.288 226.018 28.848 225.831 29.52H222.611C222.256 32.8613 222.032 36.128 221.939 39.32H225.299C225.299 39.7493 225.206 40.1507 225.019 40.524C223.395 40.6733 222.079 40.972 221.071 41.42C220.026 41.42 219.503 41 219.503 40.16C220.1 35.6053 220.474 32.0587 220.623 29.52H219.167C219.167 29.0907 219.26 28.6893 219.447 28.316C219.484 28.2973 219.531 28.2787 219.587 28.26C219.662 28.2227 219.792 28.1293 219.979 27.98C220.166 27.8307 220.334 27.6533 220.483 27.448C220.894 26.8693 221.155 26.0947 221.267 25.124C221.864 24.788 222.49 24.62 223.143 24.62C223.05 25.684 222.928 26.804 222.779 27.98L226.111 27.84ZM227.959 29.52C227.959 29.0907 228.052 28.6893 228.239 28.316C229.303 28.1667 230.339 27.868 231.347 27.42C231.608 27.42 231.842 27.5413 232.047 27.784C232.252 28.008 232.355 28.3067 232.355 28.68C231.926 32.32 231.636 35.8667 231.487 39.32H233.727C233.727 39.7493 233.634 40.1507 233.447 40.524C232.196 40.6733 231.067 40.972 230.059 41.42C229.779 41.42 229.536 41.3173 229.331 41.112C229.144 40.9067 229.051 40.5893 229.051 40.16C229.462 37.5467 229.816 34 230.115 29.52H227.959ZM230.171 22.912C230.264 22.632 230.488 22.408 230.843 22.24C231.198 22.0533 231.562 21.96 231.935 21.96C232.308 21.96 232.598 22.044 232.803 22.212C233.027 22.38 233.139 22.5667 233.139 22.772L232.999 23.78C232.794 24.34 232.196 24.62 231.207 24.62C230.834 24.62 230.544 24.536 230.339 24.368C230.152 24.2 230.059 24.004 230.059 23.78L230.171 22.912ZM243.894 37.584C243.894 37.2293 243.801 36.9493 243.614 36.744C243.428 36.52 243.278 36.3613 243.166 36.268C243.073 36.156 242.905 36.0253 242.662 35.876C242.42 35.708 242.252 35.596 242.158 35.54C241.692 35.26 241.234 35.008 240.786 34.784C240.357 34.5413 240.021 34.3453 239.778 34.196C239.554 34.0467 239.265 33.8227 238.91 33.524C238.276 32.9827 237.958 32.2827 237.958 31.424C237.958 30.1733 238.425 29.2213 239.358 28.568C240.31 27.896 241.468 27.56 242.83 27.56C244.193 27.56 245.434 27.9333 246.554 28.68C246.125 29.4827 245.798 30.3413 245.574 31.256L245.462 31.676C245.089 31.844 244.632 31.928 244.09 31.928C244.258 31.1627 244.342 30.6773 244.342 30.472C244.342 29.8747 244.137 29.5107 243.726 29.38H241.01C240.114 29.5107 239.666 30.0333 239.666 30.948C239.666 31.2653 239.825 31.592 240.142 31.928C240.46 32.2453 240.777 32.5067 241.094 32.712C241.412 32.8987 241.86 33.1413 242.438 33.44C243.036 33.7387 243.53 34.0187 243.922 34.28C244.314 34.5227 244.706 34.8773 245.098 35.344C245.509 35.792 245.714 36.2493 245.714 36.716C245.714 38.172 245.238 39.3013 244.286 40.104C243.334 40.888 242.046 41.28 240.422 41.28C239.433 41.28 238.584 41.1307 237.874 40.832C237.184 40.5147 236.736 40.2067 236.53 39.908L236.222 39.46C236.633 38.7507 236.932 37.9853 237.118 37.164L237.202 36.8C237.576 36.632 238.033 36.548 238.574 36.548C238.406 37.164 238.322 37.696 238.322 38.144C238.322 38.7973 238.854 39.236 239.918 39.46H242.83C243.54 39.0493 243.894 38.424 243.894 37.584ZM256.189 27.84C256.189 28.288 256.096 28.848 255.909 29.52H252.689C252.334 32.8613 252.11 36.128 252.017 39.32H255.377C255.377 39.7493 255.284 40.1507 255.097 40.524C253.473 40.6733 252.157 40.972 251.149 41.42C250.104 41.42 249.581 41 249.581 40.16C250.178 35.6053 250.552 32.0587 250.701 29.52H249.245C249.245 29.0907 249.338 28.6893 249.525 28.316C249.562 28.2973 249.609 28.2787 249.665 28.26C249.74 28.2227 249.87 28.1293 250.057 27.98C250.244 27.8307 250.412 27.6533 250.561 27.448C250.972 26.8693 251.233 26.0947 251.345 25.124C251.942 24.788 252.568 24.62 253.221 24.62C253.128 25.684 253.006 26.804 252.857 27.98L256.189 27.84Z" fill="#FFFDFD"/>
<line y1="0.5" x2="133" y2="0.5" stroke="white"/>
<line x1="132.5" y1="1" x2="132.5" y2="15" stroke="white"/>
<line x1="260.523" y1="59.1323" x2="132" y2="59.1323" stroke="white"/>
<line y1="-0.5" x2="13.6325" y2="-0.5" transform="matrix(-0.00839553 -0.999965 0.999966 -0.00826284 132.808 58.6321)" stroke="white"/>
</svg>
